<?xml version="1.0" encoding="UTF-8"?>
<svg xmlns="http://www.w3.org/2000/svg" xmlns:xlink="http://www.w3.org/1999/xlink" width="16px" height="16px" viewBox="0 0 16 16" version="1.1">
<g id="surface1">
<path style=" stroke:none;fill-rule:nonzero;fill:rgb(43.137255%,43.137255%,43.137255%);fill-opacity:1;" d="M 10.226562 8.046875 C 10.226562 7.417969 10.003906 6.878906 9.558594 6.433594 C 9.113281 5.984375 8.574219 5.761719 7.941406 5.761719 C 7.3125 5.761719 6.773438 5.984375 6.324219 6.433594 C 5.878906 6.878906 5.65625 7.417969 5.65625 8.046875 C 5.65625 8.679688 5.878906 9.21875 6.324219 9.664062 C 6.773438 10.109375 7.3125 10.335938 7.941406 10.335938 C 8.574219 10.335938 9.113281 10.109375 9.558594 9.664062 C 10.003906 9.21875 10.226562 8.679688 10.226562 8.046875 Z M 14.800781 7.074219 L 14.800781 9.058594 C 14.800781 9.128906 14.773438 9.195312 14.726562 9.261719 C 14.679688 9.328125 14.621094 9.367188 14.550781 9.378906 L 12.898438 9.628906 C 12.785156 9.949219 12.667969 10.222656 12.550781 10.441406 C 12.757812 10.738281 13.074219 11.148438 13.503906 11.671875 C 13.5625 11.746094 13.59375 11.820312 13.59375 11.898438 C 13.59375 11.972656 13.566406 12.042969 13.511719 12.101562 C 13.351562 12.320312 13.058594 12.644531 12.628906 13.066406 C 12.199219 13.488281 11.921875 13.699219 11.789062 13.699219 C 11.71875 13.699219 11.640625 13.671875 11.558594 13.621094 L 10.324219 12.65625 C 10.0625 12.792969 9.792969 12.90625 9.511719 12.996094 C 9.417969 13.804688 9.332031 14.359375 9.253906 14.65625 C 9.210938 14.820312 9.105469 14.90625 8.933594 14.90625 L 6.949219 14.90625 C 6.867188 14.90625 6.792969 14.878906 6.730469 14.828125 C 6.667969 14.777344 6.636719 14.714844 6.628906 14.636719 L 6.378906 12.996094 C 6.085938 12.898438 5.820312 12.789062 5.574219 12.664062 L 4.316406 13.621094 C 4.257812 13.671875 4.183594 13.699219 4.09375 13.699219 C 4.011719 13.699219 3.9375 13.667969 3.871094 13.601562 C 3.121094 12.921875 2.628906 12.421875 2.398438 12.101562 C 2.355469 12.042969 2.335938 11.972656 2.335938 11.898438 C 2.335938 11.824219 2.359375 11.757812 2.40625 11.691406 C 2.496094 11.566406 2.648438 11.367188 2.863281 11.097656 C 3.074219 10.828125 3.238281 10.617188 3.34375 10.46875 C 3.183594 10.171875 3.0625 9.875 2.976562 9.585938 L 1.34375 9.34375 C 1.265625 9.332031 1.203125 9.292969 1.15625 9.230469 C 1.109375 9.167969 1.085938 9.097656 1.085938 9.023438 L 1.085938 7.039062 C 1.085938 6.96875 1.109375 6.898438 1.15625 6.835938 C 1.203125 6.769531 1.261719 6.730469 1.324219 6.71875 L 2.988281 6.46875 C 3.070312 6.195312 3.1875 5.921875 3.335938 5.648438 C 3.097656 5.308594 2.777344 4.898438 2.378906 4.414062 C 2.320312 4.34375 2.289062 4.273438 2.289062 4.199219 C 2.289062 4.140625 2.316406 4.070312 2.371094 3.996094 C 2.523438 3.78125 2.820312 3.460938 3.25 3.035156 C 3.679688 2.609375 3.960938 2.398438 4.09375 2.398438 C 4.171875 2.398438 4.25 2.425781 4.324219 2.484375 L 5.558594 3.441406 C 5.820312 3.304688 6.089844 3.191406 6.371094 3.101562 C 6.464844 2.292969 6.550781 1.738281 6.628906 1.441406 C 6.671875 1.273438 6.777344 1.191406 6.949219 1.191406 L 8.933594 1.191406 C 9.015625 1.191406 9.089844 1.214844 9.152344 1.265625 C 9.214844 1.316406 9.25 1.382812 9.253906 1.460938 L 9.503906 3.101562 C 9.796875 3.195312 10.0625 3.308594 10.308594 3.433594 L 11.574219 2.476562 C 11.628906 2.421875 11.699219 2.398438 11.789062 2.398438 C 11.867188 2.398438 11.941406 2.425781 12.011719 2.484375 C 12.78125 3.195312 13.273438 3.699219 13.488281 4.003906 C 13.527344 4.050781 13.550781 4.117188 13.550781 4.199219 C 13.550781 4.273438 13.523438 4.339844 13.476562 4.40625 C 13.386719 4.53125 13.238281 4.726562 13.023438 5 C 12.808594 5.269531 12.648438 5.480469 12.539062 5.628906 C 12.695312 5.925781 12.816406 6.21875 12.90625 6.503906 L 14.539062 6.753906 C 14.617188 6.765625 14.679688 6.804688 14.726562 6.867188 C 14.773438 6.929688 14.800781 6.996094 14.800781 7.074219 Z M 14.800781 7.074219 "/>
</g>
</svg>
