<svg version="1.1" viewBox="0.0 0.0 512.0 512.0" fill="none" stroke="none" stroke-linecap="square" stroke-miterlimit="10" xmlns:xlink="http://www.w3.org/1999/xlink" xmlns="http://www.w3.org/2000/svg"><clipPath id="p.0"><path d="m0 0l512.0 0l0 512.0l-512.0 0l0 -512.0z" clip-rule="nonzero"/></clipPath><g clip-path="url(#p.0)"><path fill="#000000" fill-opacity="0.0" d="m0 0l512.0 0l0 512.0l-512.0 0z" fill-rule="evenodd"/><g filter="url(#shadowFilter-p.1)"><use xlink:href="#p.1" transform="matrix(1.0 0.0 0.0 1.0 0.0 6.0)"/></g><defs><filter id="shadowFilter-p.1" filterUnits="userSpaceOnUse"><feGaussianBlur in="SourceAlpha" stdDeviation="2.0" result="blur"/><feComponentTransfer in="blur" color-interpolation-filters="sRGB"><feFuncR type="linear" slope="0" intercept="0.41568628"/><feFuncG type="linear" slope="0" intercept="0.65882355"/><feFuncB type="linear" slope="0" intercept="0.30980393"/><feFuncA type="linear" slope="0.33" intercept="0"/></feComponentTransfer></filter></defs><g id="p.1"><path fill="#6aa84f" d="m15.149607 256.0l0 0c0 -133.018 107.8324 -240.85039 240.85039 -240.85039l0 0c63.877502 0 125.13873 25.375235 170.30695 70.54345c45.168213 45.168213 70.54346 106.42944 70.54346 170.30695l0 0c0 133.018 -107.8324 240.8504 -240.8504 240.8504l0 0c-133.018 0 -240.85039 -107.8324 -240.85039 -240.8504z" fill-rule="evenodd"/></g><path fill="#4f8637" d="m495.323 283.08154l0 0c-14.466858 127.84564 -126.86151 221.74597 -255.24174 213.24222l15.918747 -240.32376z" fill-rule="evenodd"/><path fill="#4f8637" d="m494.3281 284.20996l-121.26248 -133.895l-108.677155 122.70604l-79.95538 -45.230972l-42.94751 134.73753l99.37007 133.8924z" fill-rule="evenodd"/><path fill="#ffffff" d="m139.81102 188.64568l43.779526 0l0 174.29921l-43.779526 0z" fill-rule="evenodd"/><path fill="#ffffff" d="m328.39536 188.64568l43.77954 0l0 174.29921l-43.77954 0z" fill-rule="evenodd"/><path fill="#ffffff" d="m256.0 305.84253l-116.18898 -99.9783l0 -56.809113l116.18898 99.97829z" fill-rule="evenodd"/><path fill="#ffffff" d="m256.0 305.84253l116.188965 -99.9783l0 -56.809113l-116.188965 99.97829z" fill-rule="evenodd"/></g></svg>